<?xml version="1.0" encoding="utf-8"?>
<!-- Generator: Adobe Illustrator 23.0.0, SVG Export Plug-In . SVG Version: 6.00 Build 0)  -->
<svg version="1.1" id="Layer_1" xmlns="http://www.w3.org/2000/svg" xmlns:xlink="http://www.w3.org/1999/xlink" x="0px" y="0px"
	 viewBox="0 0 216 257" style="enable-background:new 0 0 216 257;" xml:space="preserve" fill="white">
<g>
	<path d="M67.8,24.7c-0.5,0.1-0.8,0.5-0.8,1c0.1,0.5,0.5,0.8,1,0.8c0.5-0.1,0.8-0.4,0.8-0.9C68.8,25,68.4,24.6,67.8,24.7
		C67.8,24.7,67.8,24.7,67.8,24.7z"/>
	<ellipse cx="138" cy="26.3" rx="1.9" ry="2"/>
	<ellipse cx="26.8" cy="20.5" rx="2" ry="1.9"/>
	<path d="M169.4,6.4c0-0.6-0.4-1-0.9-1.1c-0.6,0-1,0.4-1.1,0.9s0.4,1,0.9,1.1c0,0,0.1,0,0.1,0C168.9,7.4,169.4,7,169.4,6.4
		C169.4,6.5,169.4,6.5,169.4,6.4z"/>
	<path d="M186,14c0-2.8-2.2-5-5-5s-5,2.2-5,5s2.2,5,5,5S186,16.8,186,14z M178,14c0-1.7,1.3-3,3-3s3,1.3,3,3s-1.3,3-3,3
		S178,15.7,178,14z"/>
	<path d="M13.7,148.3c2.8,0,5-2.1,5.1-4.9c0-2.8-2.1-5-4.9-5.1c-2.8,0-5,2.1-5.1,4.9c0,0,0,0.1,0,0.1C8.8,146,11,148.2,13.7,148.3z
		 M13.7,140.3c1.7,0,3,1.3,3,3s-1.3,3-3,3s-3-1.3-3-3S12.1,140.3,13.7,140.3z"/>
	<path d="M68.3,6.6c-1.1,0.1-1.9,0.9-1.9,2c0,1,0.9,1.9,1.9,1.9s1.9-0.9,1.9-1.9l0,0C70.2,7.5,69.4,6.6,68.3,6.6z"/>
	<path d="M55.3,13.2c-2.7,0-4.9,2.3-4.8,5s2.3,4.9,5,4.8c2.7,0,4.8-2.2,4.8-4.9C60.3,15.4,58,13.2,55.3,13.2z M55.3,21.1
		c-1.7,0-3-1.3-3-3s1.3-3,3-3s3,1.3,3,3S57,21.1,55.3,21.1z"/>
	<path d="M13.7,68.5c2.8,0,5-2.1,5.1-4.9s-2.1-5-4.9-5.1s-5,2.1-5.1,4.9c0,0,0,0.1,0,0.1C8.8,66.2,11,68.5,13.7,68.5z M13.7,60.7
		c1.7,0,3,1.3,3,3s-1.3,3-3,3s-3-1.3-3-3S12.1,60.7,13.7,60.7z"/>
	<path d="M5.4,51c0,0.5,0.5,0.9,0.9,0.8c0.5,0,0.9-0.5,0.8-0.9c0-0.5-0.4-0.8-0.9-0.8C5.8,50.1,5.4,50.5,5.4,51
		C5.4,51,5.4,51,5.4,51z"/>
	<path d="M169.9,23.7c-0.1-1-0.9-1.9-2-1.8c-1,0.1-1.9,0.9-1.8,2c0.1,1,0.9,1.8,1.9,1.8C169,25.7,169.9,24.8,169.9,23.7z"/>
	<ellipse cx="23.3" cy="50.5" rx="2" ry="1.9"/>
	<path d="M4,151.4c-0.9,0-1.7,0.8-1.7,1.7c0,0.9,0.8,1.7,1.7,1.7c0.9,0,1.7-0.8,1.7-1.7C5.7,152.1,4.9,151.4,4,151.4z"/>
	<ellipse cx="205.3" cy="182" rx="2" ry="1.9"/>
	<path d="M195.8,164c-2.8,0-5,2.1-5.1,4.9s2.1,5,4.9,5.1c2.8,0,5-2.1,5.1-4.9c0,0,0-0.1,0-0.1C200.7,166.3,198.5,164,195.8,164
		C195.8,164,195.8,164,195.8,164z M195.8,172c-1.7,0-3-1.3-3-3s1.3-3,3-3s3,1.3,3,3S197.4,172,195.8,172z"/>
	<path d="M119.4,233.3c0.5,0,0.9-0.4,0.8-0.9c0-0.5-0.4-0.9-0.9-0.8c-0.5,0-0.8,0.4-0.8,0.9C118.5,232.9,118.9,233.3,119.4,233.3z"
		/>
	<path d="M125.6,177.6c-1,0.1-1.9,0.9-1.8,2c0.1,1,0.9,1.9,2,1.8c1-0.1,1.8-0.9,1.8-1.9C127.5,178.4,126.7,177.6,125.6,177.6z"/>
	<ellipse transform="matrix(0.7071 -0.7071 0.7071 0.7071 -132.1139 82.4864)" cx="33.5" cy="200.7" rx="1.9" ry="2"/>
	<path d="M207.2,222.1l3.2,3.4v4.8c0.5,0.3,0.7,0.8,0.7,1.3c0,0.8-0.6,1.4-1.4,1.4c-0.8,0-1.4-0.6-1.4-1.4c0-0.5,0.2-0.9,0.5-1.2
		v-3.9l-1.6-1.7v13.1c1.9,1.5,3,3.8,2.9,6.2c0,4.3-3.5,7.9-7.8,7.9s-7.9-3.5-7.9-7.8c0,0,0,0,0,0c0-2.8,1.5-5.5,3.9-6.9v-19.8
		l-3.6,3.4v7.9c0.8,0.5,1.2,1.4,1.3,2.3c-0.1,1.8-1.6,3.1-3.4,3c-1.6-0.1-2.9-1.4-3-3c0-1.1,0.6-2.1,1.6-2.6v-9.5l7.2-6.8l17.7-18
		L216,176c-7-15-15.5-31.6-25.8-46.5c14.9-4.4,23.6-13.1,23.6-28.5V82.2c0-23.7-20.4-32.2-53-32.2h-44v126H47.3c33.3,0,54-8.7,54-34
		V83.9c0-25.3-20.7-33.9-53.8-33.9H32.2V39.5l-7-6.8v-9.5c-1-0.5-1.6-1.5-1.5-2.6c0.1-1.7,1.6-3,3.3-2.9c1.6,0.1,2.8,1.4,2.9,2.9
		c0,0.9-0.4,1.8-1.2,2.4v7.9l3.5,3.4V32h119.4l-3.4-3.7h-7.9c-0.6,0.8-1.4,1.2-2.4,1.2c-1.8-0.1-3.2-1.6-3.1-3.5
		c0.1-1.7,1.4-3,3.1-3.1c1.1,0,2.1,0.6,2.6,1.6h9.5L157,32h59V0h-71l9,9h5l3.4-3.3h4.8c0.3-0.5,0.8-0.7,1.3-0.7
		c0.8-0.1,1.5,0.5,1.6,1.3c0.1,0.8-0.5,1.5-1.3,1.6c-0.1,0-0.2,0-0.2,0c-0.5,0-0.9-0.2-1.2-0.5h-3.9L161.7,9h13.1
		c2.8-3.5,7.8-4,11.2-1.2c3.5,2.8,4,7.8,1.2,11.2c-2.8,3.5-7.8,4-11.2,1.2c-0.8-0.6-1.4-1.4-1.9-2.2h-19.8l3.4,3.7h7.9
		c0.6-0.8,1.4-1.2,2.4-1.2c1.8,0.1,3.2,1.6,3.1,3.5c-0.1,1.7-1.4,3-3.1,3.1c-1.1,0-2.1-0.6-2.6-1.6h-9.5L149,18L131,0H0v13.5
		l17.7,18l7.2,6.8v9.5c1,0.5,1.6,1.5,1.6,2.6c-0.1,1.8-1.7,3.1-3.5,3c-1.6-0.1-2.8-1.4-3-3c0-0.9,0.5-1.8,1.2-2.4v-7.9l-3.6-3.4
		v19.8c2.4,1.4,3.9,4.1,3.9,6.9c0,4.4-3.5,8-7.8,8c0,0,0,0,0,0c-4.4,0-7.9-3.6-7.9-8c0,0,0,0,0,0c0-2.4,1.1-4.7,2.9-6.2V44.2
		l-1.6,1.7v3.9c0.3,0.3,0.5,0.7,0.5,1.2c0,0.8-0.6,1.5-1.4,1.5c-0.8,0-1.4-0.7-1.4-1.5c0-0.5,0.3-1,0.7-1.3v-4.8l3.2-3.4v-5l-8.8-9
		V176h3.2l5.6-5.8l-6.2-6.2v-8.6c-0.9-0.5-1.4-1.4-1.4-2.4c0.1-1.5,1.4-2.7,2.9-2.6c1.4,0.1,2.5,1.2,2.6,2.6c0,0.8-0.4,1.6-1,2.1
		v7.1l3.1,3.1v-16c-1.9-1.5-3-3.8-2.9-6.2c0-4.4,3.5-8,7.8-8c0,0,0,0,0,0c4.4,0,7.9,3.6,7.9,8c0,0,0,0,0,0c0,2.8-1.5,5.5-3.9,6.9
		v25.1L17,176h0L0,193.3V208h34l18-17.7l6.8-7.2h9.5c0.5-1,1.5-1.6,2.7-1.6c1.8,0.1,3.1,1.7,3,3.5c-0.1,1.6-1.4,2.8-3,3
		c-0.9,0-1.8-0.5-2.4-1.2h-7.9l-3.4,3.6h19.8c1.4-2.4,4.1-3.9,6.9-3.9c4.3,0,7.9,3.5,7.9,7.8s-3.5,7.9-7.8,7.9c0,0,0,0,0,0
		c-2.4,0-4.7-1.1-6.2-2.9H64.7l1.7,1.6h3.9c0.3-0.3,0.7-0.5,1.2-0.5c0.8-0.1,1.5,0.5,1.5,1.3c0.1,0.8-0.5,1.5-1.3,1.5
		c-0.1,0-0.2,0-0.2,0c-0.5,0-1-0.3-1.3-0.7h-4.8l-3.4-3.2h-5l-9,8.8h101v-75.1h9c9.1,13.7,17.2,28.1,24,43.1v29l8.8-9v-5l-3.2-3.4
		v-4.8c-0.5-0.3-0.7-0.8-0.7-1.3c0-0.8,0.6-1.4,1.4-1.4c0.8,0,1.4,0.6,1.4,1.4c0,0.5-0.2,0.9-0.5,1.2v3.9l1.6,1.7v-13.1
		c-1.9-1.5-3-3.8-3-6.2c0.1-4.3,3.6-7.8,8-7.8c4.3,0.1,7.8,3.6,7.8,8c0,2.8-1.5,5.3-3.9,6.7v19.8l3.6-3.4v-7.9
		c-0.7-0.6-1.2-1.4-1.2-2.4c0.1-1.8,1.7-3.1,3.5-3c1.6,0.1,2.8,1.4,3,3c0,1.1-0.6,2.1-1.5,2.6v0v9.5l-7.2,6.8L182,219v7H0v31h60.2
		l-9-8.8h-5l-3.4,3.2H38c-0.3,0.4-0.8,0.7-1.3,0.7c-0.8,0.1-1.5-0.5-1.5-1.3c-0.1-0.8,0.5-1.5,1.3-1.5c0.1,0,0.2,0,0.2,0
		c0.5,0,0.9,0.2,1.2,0.5h3.9l1.7-1.6H30.5c-1.5,1.9-3.8,3-6.2,2.9c-4.3,0-7.9-3.5-7.9-7.8s3.5-7.9,7.8-7.9c0,0,0,0,0,0
		c2.8,0,5.5,1.5,6.9,3.9h19.8l-3.4-3.6h-7.9c-0.6,0.7-1.4,1.2-2.4,1.2c-1.8,0-3.2-1.4-3.2-3.2c0-1.8,1.4-3.2,3.2-3.2
		c1.1,0,2.1,0.6,2.6,1.6h9.5l6.8,7.2l18,17.7H216v-48.9l-8.8,9V222.1z M55.3,10.3c2.8,0,5.5,1.5,6.9,3.9H82l-3.4-3.6h-7.9
		c-0.6,0.7-1.4,1.2-2.4,1.2c-1.7-0.1-3.1-1.5-3-3.2c-0.1-1.7,1.3-3.1,3-3.2C69.5,5.4,70.5,6,71,7h9.5l6.8,7.2l18,17.7l-14,0l-9-8.8
		h-5l-3.4,3.2h-4.8c-0.3,0.4-0.8,0.7-1.3,0.7c-0.8,0.1-1.5-0.5-1.5-1.3c-0.1-0.8,0.5-1.5,1.3-1.5c0.1,0,0.2,0,0.2,0
		c0.5,0,0.9,0.2,1.2,0.5h3.9l1.7-1.6H61.5c-1.5,1.9-3.8,3-6.2,3c-4.3,0-7.8-3.5-7.8-7.8C47.5,13.8,51,10.3,55.3,10.3z M32.2,77h15.3
		c11.8,0,21.5,1.8,21.5,13.3v45.5c0,10.9-9.8,12.8-21.5,12.8H32.2V77z M47.2,195l-5-0.1l-5.6,5.6c0.1,0.9-0.2,1.9-0.8,2.5
		c-1.3,1.2-3.4,1-4.5-0.3c-1.1-1.2-1.1-3,0-4.3c0.8-0.8,1.9-1.1,3-0.7L41,191l9.9,0.3L47.2,195z M148.9,156.5l-8.8,9v5l3.2,3.4v4.8
		c0.5,0.3,0.7,0.8,0.7,1.3c0,0.8-0.6,1.4-1.4,1.4s-1.4-0.6-1.4-1.4c0-0.5,0.2-0.9,0.5-1.2v-3.9l-1.6-1.7v13.1
		c1.9,1.5,2.9,3.8,2.9,6.2c0,4.3-3.5,7.9-7.8,7.9c-4.3,0-7.9-3.5-7.9-7.8c0,0,0,0,0,0c0-2.8,1.5-5.5,3.9-6.9v-19.8l-3.6,3.4v7.9
		c0.8,0.6,1.2,1.4,1.2,2.4c-0.1,1.8-1.6,3.1-3.4,3c-1.6-0.1-2.9-1.4-3-3c0-1.1,0.6-2.1,1.6-2.6v-9.5l7.2-6.8l17.7-18L148.9,156.5z
		 M181.6,93.8c0,11.1-9.6,12.6-21.2,12.6H149V77h11.4c11.6,0,21.2,1.5,21.2,12.8V93.8z M132.5,247.7c-0.2,0-0.4,0-0.6,0
		c-2.8,0-5.5-1.5-6.9-3.9h-19.8l3.4,3.6h7.9c0.6-0.7,1.4-1.2,2.4-1.2c1.8,0.1,3.1,1.7,3,3.5c-0.1,1.6-1.4,2.8-3,3
		c-1.1,0-2.1-0.6-2.6-1.6h-9.5l-6.8-7.2l-18-17.7h14l9,8.8h5l3.4-3.2h4.8c0.3-0.4,0.8-0.7,1.3-0.7c0.8,0,1.4,0.6,1.4,1.4
		s-0.6,1.4-1.4,1.4c-0.5,0-0.9-0.2-1.2-0.5h-3.9l-1.7,1.6h13.1c1.5-1.9,3.8-3,6.2-3c4.3-0.2,8,3.2,8.1,7.6S136.8,247.5,132.5,247.7z
		"/>
	<path d="M131.9,234.9c-2.7,0-4.9,2.3-4.8,5c0,2.7,2.3,4.9,5,4.8c2.7,0,4.8-2.2,4.8-4.9C136.9,237.1,134.7,234.9,131.9,234.9
		C131.9,234.9,131.9,234.9,131.9,234.9z M131.9,242.8c-1.7,0-3-1.3-3-3s1.3-3,3-3s3,1.3,3,3C134.9,241.5,133.6,242.8,131.9,242.8
		L131.9,242.8L131.9,242.8z"/>
	<ellipse cx="118.9" cy="249.4" rx="1.9" ry="2"/>
	<path d="M135.1,197.5c2.8,0,5-2.1,5.1-4.9s-2.1-5-4.9-5.1c-2.8,0-5,2.1-5.1,4.9c0,0,0,0.1,0,0.1
		C130.2,195.3,132.4,197.5,135.1,197.5z M135.1,189.5c1.7,0,3,1.3,3,3s-1.3,3-3,3s-3-1.3-3-3C132.2,190.9,133.5,189.5,135.1,189.5
		L135.1,189.5z"/>
	<path d="M188.4,180.6c-0.5-0.1-1,0.3-1.1,0.9s0.3,1,0.9,1.1s1-0.3,1.1-0.9c0,0,0-0.1,0-0.1C189.3,181.1,188.9,180.6,188.4,180.6
		C188.4,180.6,188.4,180.6,188.4,180.6z"/>
	<path d="M142.6,181c0.5-0.2,0.8-0.7,0.6-1.3c-0.1-0.3-0.3-0.5-0.6-0.6c-0.5,0.2-0.8,0.7-0.6,1.3C142,180.7,142.3,180.9,142.6,181z"
		/>
	<path d="M19.2,243.3c0,2.8,2.1,5,4.9,5.1s5-2.1,5.1-4.9s-2.1-5-4.9-5.1c0,0-0.1,0-0.1,0C21.5,238.3,19.3,240.5,19.2,243.3z
		 M27.2,243.3c0,1.7-1.3,3-3,3s-3-1.3-3-3s1.3-3,3-3S27.2,241.6,27.2,243.3z"/>
	<path d="M35.8,250.7c-0.1,0.5,0.3,1,0.9,1.1c0.5,0.1,1-0.3,1.1-0.9c0.1-0.5-0.3-1-0.9-1.1c-0.1,0-0.1,0-0.2,0
		C36.2,249.8,35.8,250.2,35.8,250.7z"/>
	<path d="M72.4,201.7c0.1-0.5-0.3-1-0.9-1.1c-0.5-0.1-1,0.3-1.1,0.9c-0.1,0.5,0.3,1,0.9,1.1c0,0,0.1,0,0.1,0
		C71.9,202.6,72.4,202.2,72.4,201.7C72.4,201.7,72.4,201.7,72.4,201.7z"/>
	<ellipse cx="71" cy="184.7" rx="1.9" ry="2"/>
	<path d="M89,194.3c0-2.8-2.1-5-4.9-5.1s-5,2.1-5.1,4.9c0,2.8,2.1,5,4.9,5.1c0,0,0.1,0,0.1,0C86.7,199.2,89,197,89,194.3z M81,194.3
		c0-1.7,1.3-3,3-3s3,1.3,3,3s-1.3,3-3,3S81,195.9,81,194.3z"/>
	<ellipse cx="37.3" cy="233.7" rx="1.9" ry="2"/>
	<polygon points="0,176 0,179.3 3.2,176 	"/>
	<path d="M209.7,232.5c0.5,0.1,1-0.3,1.1-0.9c0.1-0.5-0.3-1-0.9-1.1c-0.5-0.1-1,0.3-1.1,0.9c0,0.1,0,0.1,0,0.2
		C208.8,232.1,209.2,232.5,209.7,232.5z"/>
	<path d="M190.7,231c-0.1,1.1,0.8,2,1.9,2.1c1.1,0.1,2-0.8,2.1-1.9c0.1-1.1-0.8-2-1.9-2.1c0,0-0.1,0-0.1,0
		C191.7,229.1,190.8,229.9,190.7,231z"/>
	<path d="M197.4,244.1c0,2.7,2.3,4.9,5,4.8c2.7,0,4.9-2.3,4.8-5c0-2.7-2.2-4.8-4.9-4.8C199.6,239.1,197.4,241.4,197.4,244.1z
		 M205.3,244.1c0,1.7-1.3,3-3,3s-3-1.3-3-3s1.3-3,3-3l0,0C203.9,241.1,205.3,242.4,205.3,244.1L205.3,244.1z"/>
</g>
</svg>
